<svg width="24" height="24" viewBox="0 0 24 24" fill="none" xmlns="http://www.w3.org/2000/svg">
<rect width="24" height="24" rx="12" transform="matrix(1 0 0 -1 0 24)" fill="white"/>
<path d="M16.8867 9.80548C17.0104 9.68295 17.2005 9.66749 17.3408 9.75958L17.3975 9.80548C17.4629 9.8701 17.5 9.95848 17.5 10.0506C17.5 10.1197 17.4794 10.1866 17.4414 10.243L17.3975 10.2957L12.2549 15.3943L12.2549 15.3953C12.1142 15.5353 11.8858 15.5353 11.7451 15.3953L11.7451 15.3943L6.60254 10.2967L6.60254 10.2957L6.55859 10.243C6.52061 10.1865 6.50003 10.1195 6.5 10.0506C6.5 9.95864 6.53699 9.87043 6.60254 9.80548L6.60254 9.8045C6.74379 9.66494 6.97214 9.66494 7.11328 9.8045L11.6465 14.3026L11.999 14.6522L12.3516 14.3026L16.8857 9.8045L16.8867 9.80548Z" stroke="#D175B6"/>
</svg>
