<svg width="24" height="24" viewBox="0 0 24 24" fill="none" xmlns="http://www.w3.org/2000/svg">
<rect width="24" height="24" rx="12" transform="matrix(-1 -8.74228e-08 -8.74228e-08 1 24 0)" fill="white"/>
<path d="M7.11328 14.1945C6.98956 14.3171 6.79945 14.3325 6.65918 14.2404L6.60254 14.1945C6.53713 14.1299 6.5 14.0415 6.5 13.9494C6.50003 13.8803 6.52064 13.8134 6.55859 13.757L6.60254 13.7043L11.7451 8.60565V8.60468C11.8858 8.46471 12.1142 8.46471 12.2549 8.60468V8.60565L17.3975 13.7033V13.7043L17.4414 13.757C17.4794 13.8135 17.5 13.8805 17.5 13.9494C17.5 14.0414 17.463 14.1296 17.3975 14.1945V14.1955C17.2562 14.3351 17.0279 14.3351 16.8867 14.1955L12.3535 9.69745L12.001 9.34784L11.6484 9.69745L7.11426 14.1955L7.11328 14.1945Z" stroke="#D175B6"/>
</svg>
